<?xml version="1.0" encoding="UTF-8" standalone="no"?>
<!-- Created with Inkscape (http://www.inkscape.org/) -->
<!DOCTYPE svg PUBLIC "-//W3C//DTD SVG 1.1//EN" "http://www.w3.org/Graphics/SVG/1.1/DTD/svg11.dtd">
<svg
   xmlns:svg="http://www.w3.org/2000/svg"
   xmlns="http://www.w3.org/2000/svg"
   xmlns:xlink="http://www.w3.org/1999/xlink"
   version="1.1"
   width="625"
   height="410"
   id="svg1">
  <defs
     id="defs3">
    <linearGradient
       id="linearGradient5340">
      <stop
         id="stop5341"
         style="stop-color:#000000;stop-opacity:1"
         offset="0" />
      <stop
         id="stop5342"
         style="stop-color:#000000;stop-opacity:0"
         offset="1" />
    </linearGradient>
    <linearGradient
       x1="96.318947"
       y1="1194.041"
       x2="96.318947"
       y2="1379.4198"
       id="linearGradient2186"
       xlink:href="#linearGradient5340"
       gradientUnits="userSpaceOnUse"
       gradientTransform="matrix(3.0276014,0,0,0.33029447,0,-90)" />
  </defs>
  <path
     d="M 147.20994,54.82044 321.24309,304.82044 512.79586,32.90285 M 122.20994,54.82044 296.24309,304.82044 487.79586,32.90285 M 97.20994,54.82044 271.24309,304.82044 462.79586,32.90285 M 72.20994,54.82044 246.24309,304.82044 437.79586,32.90285"
     id="path2816"
     style="fill:none;stroke:#1432b4;stroke-width:2;stroke-linecap:butt;stroke-linejoin:miter;stroke-miterlimit:4;stroke-opacity:1;stroke-dasharray:none" />
  <rect
     width="561.25311"
     height="61.229591"
     x="31.873436"
     y="304.38513"
     id="rect938"
     style="fill:url(#linearGradient2186);fill-opacity:0.75;fill-rule:evenodd;stroke:none" />
  <path
     d="M 31.873436,307.44425 593.12655,307.7"
     id="path937"
     style="fill:none;stroke:#000000;stroke-width:7;stroke-linecap:butt;stroke-linejoin:miter;stroke-miterlimit:4;stroke-opacity:1;stroke-dasharray:none" />
  <path
     d="M 416.98765,179.87211 406.02871,171.86431 427.52378,153.95032 416.98765,179.87211 z M 223.69038,153.89865 212.73144,161.90645 234.22651,179.82044 223.69038,153.89865 z M 391.98765,179.87211 381.02871,171.86431 402.52378,153.95032 391.98765,179.87211 z M 198.69038,153.89865 187.73144,161.90645 209.22651,179.82044 198.69038,153.89865 z M 366.98765,179.87211 356.02871,171.86431 377.52378,153.95032 366.98765,179.87211 z M 173.69038,153.89865 162.73144,161.90645 184.22651,179.82044 173.69038,153.89865 z M 341.98765,179.87211 331.02871,171.86431 352.52378,153.95032 341.98765,179.87211 z M 148.69038,153.89865 137.73144,161.90645 159.22651,179.82044 148.69038,153.89865 z"
     id="path2818"
     style="fill:#1450b4;fill-opacity:1;fill-rule:evenodd;stroke:none" />
</svg>
